# xmcd
#
# Track frame offsets:
#	150
#	16872
#	29624
#	39586
#	46946
#	67227
#	80504
#	90397
#	117677
#	142620
#	158069
#	170719
#	183126
#	200060
#	212026
#	229015
#	238218
#
# Disc length: 3433 seconds
#
# Revision: 1
# Processed by: cddbd v1.5.2PL0 Copyright (c) Steve Scherf et al.
# Submitted via: audiograbber 1.83.01
#
DISCID=e90d6711
DTITLE=Various Artist - Where The Palm Trees Shake At Night (Blues From The Florida Fo
DTITLE=lk Life Collection)
DYEAR=2002
DGENRE=Blues Acoustic
TTITLE0=Roy Book Binder - Palm Trees Shakin' In The Night
TTITLE1=Ida Goodson - Careless Love
TTITLE2=Albert "Buck" Thompson - Rollin' Stone
TTITLE3=Sammy Lee Williams - Step Up A Little Bit Bigger
TTITLE4=Cephas and Wiggins - Dog Days of August
TTITLE5=Moses Williams - Apple Farm Blues
TTITLE6=Johnny Brown - Nobody Likes Mexico Like I Do
TTITLE7=Mary McClain and Ida Goodson - St. Louis Blues
TTITLE8=Martin "Tampa Blue" Locklear - M&O Blues
TTITLE9=Etta Baker - Crow Jane Blues
TTITLE10=Emmett Murray - Old Time Rounders
TTITLE11=Marie Buggs and Isaac Hamiltom - Feelin' Fine Today
TTITLE12=Alex McBride - In The Evening When The Sun Goes Down
TTITLE13=Johnny Shines - Have To Pay The Cost
TTITLE14=Charles Atkins and The Blues Boys - Key To The Highway
TTITLE15=William "Washboard Bill" Cooke - Sunshine Florida
TTITLE16=Richard Williams - Unidtentified
EXTD=
EXTT0=
EXTT1=
EXTT2=
EXTT3=
EXTT4=
EXTT5=
EXTT6=
EXTT7=
EXTT8=
EXTT9=
EXTT10=
EXTT11=
EXTT12=
EXTT13=
EXTT14=
EXTT15=
EXTT16=
PLAYORDER=
